<?xml version="1.0" encoding="utf-8"?><svg xmlns="http://www.w3.org/2000/svg" xmlns:xlink="http://www.w3.org/1999/xlink" width="1536" height="760" preserveAspectRatio="xMidYMid" viewBox="0 0 1536 760" style="z-index:1;margin-right:-1.6px;display:block;background-repeat-y:initial;background-repeat-x:initial;background-color:rgb(255, 255, 255);animation-play-state:paused" ><g transform="translate(768,380) scale(1,1) translate(-768,-380)" style="transform:matrix(1, 0, 0, 1, 0, 0);animation-play-state:paused" ><linearGradient id="lg-0.4894179039505764" x1="0" x2="1" y1="0" y2="0" style="animation-play-state:paused" ><stop stop-color="#ff00ff" offset="0" style="animation-play-state:paused" ></stop>

  
<stop stop-color="#00ffff" offset="1" style="animation-play-state:paused" ></stop></linearGradient>
<path d="M 0 0 L 0 642.022 Q 153.6 679.184 307.2 636.537 T 614.4 474.549 T 921.6 403.157 T 1228.8 416.616 T 1536 334.642 L 1536 0 Z" fill="url(#lg-0.4894179039505764)" opacity="0.4" style="opacity:0.4;animation-play-state:paused" ></path>
<path d="M 0 0 L 0 663.855 Q 153.6 653.957 307.2 623.585 T 614.4 480.813 T 921.6 455.748 T 1228.8 368.799 T 1536 331.16 L 1536 0 Z" fill="url(#lg-0.4894179039505764)" opacity="0.4" style="opacity:0.4;animation-play-state:paused" ></path>
<path d="M 0 0 L 0 647.845 Q 153.6 599.436 307.2 567.017 T 614.4 578.783 T 921.6 402.698 T 1228.8 342.938 T 1536 331.096 L 1536 0 Z" fill="url(#lg-0.4894179039505764)" opacity="0.4" style="opacity:0.4;animation-play-state:paused" ></path>
<path d="M 0 0 L 0 688.697 Q 153.6 662.709 307.2 621.433 T 614.4 476.885 T 921.6 401.88 T 1228.8 434.551 T 1536 319.564 L 1536 0 Z" fill="url(#lg-0.4894179039505764)" opacity="0.4" style="opacity:0.4;animation-play-state:paused" ></path>
<path d="M 0 0 L 0 719.44 Q 153.6 625.155 307.2 589.99 T 614.4 574.805 T 921.6 484.402 T 1228.8 427.836 T 1536 302.739 L 1536 0 Z" fill="url(#lg-0.4894179039505764)" opacity="0.4" style="opacity:0.4;animation-play-state:paused" ></path></g></svg>